<svg xmlns:xlink="http://www.w3.org/1999/xlink" width="28" height="23" viewBox="0 0 18 13" fill="none" xmlns="http://www.w3.org/2000/svg"> <path d="M7.5 6.75001C7.49828 7.40995 7.65247 8.06096 7.95 8.65001C8.30278 9.35589 8.84512 9.9496 9.51628 10.3647C10.1874 10.7797 10.9609 10.9997 11.75 11C12.4099 11.0017 13.0609 10.8475 13.65 10.55L16.5 11.5L15.55 8.65001C15.8475 8.06096 16.0017 7.40995 16 6.75001C15.9997 5.96089 15.7797 5.18744 15.3646 4.51629C14.9496 3.84514 14.3559 3.3028 13.65 2.95001C13.0609 2.65248 12.4099 2.49829 11.75 2.50001H11.5C10.4578 2.55751 9.47348 2.99739 8.73543 3.73544C7.99738 4.47349 7.5575 5.45784 7.5 6.50001V6.75001Z" fill="none" stroke="#BEBEBE" stroke-linecap="round" stroke-linejoin="round"></path> <path d="M10 5.25001C10.0017 5.90995 9.84753 6.56096 9.55 7.15001C9.19722 7.85589 8.65488 8.4496 7.98372 8.86465C7.31257 9.27971 6.53912 9.49971 5.75 9.50001C5.09007 9.50173 4.43906 9.34755 3.85 9.05001L1 10L1.95 7.15001C1.65247 6.56096 1.49828 5.90995 1.5 5.25001C1.50031 4.46089 1.72031 3.68744 2.13536 3.01629C2.55041 2.34514 3.14413 1.8028 3.85 1.45001C4.43906 1.15248 5.09007 0.998294 5.75 1.00001H6C7.04217 1.05751 8.02652 1.49739 8.76457 2.23544C9.50262 2.97349 9.9425 3.95784 10 5.00001V5.25001Z" fill="#BEBEBE" stroke="#BEBEBE" stroke-linecap="round" stroke-linejoin="round"></path> </svg>