<svg xmlns:xlink="http://www.w3.org/1999/xlink" width="30" height="28" viewBox="0 0 30 28" fill="none" xmlns="http://www.w3.org/2000/svg">
<path d="M26.2488 5.87515H25V5.87479C25 5.18444 24.4404 4.62481 23.75 4.62481C23.0597 4.62481 22.5001 5.18444 22.5001 5.87479V5.87515H21.2501V4.61849C21.2501 2.55065 19.5742 0.874756 17.5063 0.874756H12.4938C10.426 0.874756 8.7501 2.55065 8.7501 4.61849V5.87509H7.5V5.87474C7.5 5.18438 6.94037 4.62476 6.25002 4.62476C5.55967 4.62476 5.00004 5.18438 5.00004 5.87474V5.87509H3.75123C1.67965 5.87515 0 7.55474 0 9.62638V23.3726C0 25.4452 1.67936 27.1252 3.75123 27.1252H26.2487C28.3206 27.1252 29.9999 25.4452 29.9999 23.3726V9.62638C30 7.55474 28.3204 5.87515 26.2488 5.87515ZM11.25 4.61849C11.25 3.93136 11.8066 3.37472 12.4938 3.37472H17.5063C18.1934 3.37472 18.7501 3.9313 18.7501 4.61849V5.87474H11.25V4.61849ZM22.5 8.37511V24.6251H7.5V8.37511H22.5ZM2.50002 23.3726V9.62638C2.50002 8.9355 3.06035 8.37511 3.75129 8.37511H5.00004V24.6251H3.75123C3.06023 24.6251 2.50002 24.0646 2.50002 23.3726ZM27.5 23.3726C27.5 24.0647 26.9397 24.6251 26.2487 24.6251H25V8.37511H26.2487C26.9396 8.37511 27.5 8.93544 27.5 9.62638V23.3726Z" fill="#CACACA"></path>
</svg>