<svg xmlns:xlink="http://www.w3.org/1999/xlink" width="24" height="24" viewBox="0 0 24 24" fill="none" xmlns="http://www.w3.org/2000/svg">
<path d="M8.9928 21.752H14.9928M5.24977 9.75196C5.24976 8.86123 5.42606 7.97931 5.76849 7.15703C6.11091 6.33475 6.6127 5.58837 7.24492 4.96093C7.87715 4.33348 8.62731 3.83736 9.45216 3.50118C10.277 3.165 11.1603 2.99539 12.051 3.00215C15.7728 3.02974 18.7498 6.11477 18.7498 9.8367V11.252C18.7498 14.6097 19.4542 16.5581 20.0747 17.623C20.1414 17.737 20.1769 17.8665 20.1775 17.9985C20.1781 18.1305 20.1439 18.2604 20.0783 18.3749C20.0126 18.4895 19.9179 18.5847 19.8037 18.6509C19.6895 18.7171 19.5598 18.7519 19.4277 18.752H4.57107C4.43903 18.7519 4.30934 18.7171 4.1951 18.6508C4.08087 18.5846 3.98615 18.4894 3.92051 18.3748C3.85487 18.2603 3.82065 18.1304 3.8213 17.9984C3.82195 17.8663 3.85746 17.7368 3.92422 17.6229C4.54499 16.5579 5.24977 14.6095 5.24977 11.252V9.75196Z" stroke="#FFFFFF" stroke-width="1.5px" stroke-linecap="round" stroke-linejoin="round" fill="none"></path>
</svg>