<svg xmlns:xlink="http://www.w3.org/1999/xlink" width="16" height="16" xmlns="http://www.w3.org/2000/svg" xml:space="preserve" enable-background="new 0 0 144.083 144" version="1.1">
  <g>
    <path stroke="#BEBEBE" stroke-width="0.6px" d="m14.74673,13.13093l-4.58638,-4.83914l3.48545,-3.48528c0.02583,-0.02583 0.04579,-0.05703 0.05837,-0.09141l1.14488,-3.1277c0.03371,-0.09191 0.01107,-0.19506 -0.05837,-0.26433c-0.0691,-0.0691 -0.17225,-0.09174 -0.26433,-0.05837l-3.1277,1.14471c-0.03438,0.01241 -0.06558,0.03237 -0.09141,0.05837l-3.42272,3.42306l-0.07279,-0.07665c-0.03606,-0.03606 -0.07548,-0.06642 -0.11455,-0.09745c0.04998,-0.24538 0.0748,-0.50283 0.06592,-0.767c-0.02969,-0.86914 -0.37453,-1.67656 -0.97145,-2.27365c-0.54225,-0.54225 -1.21649,-0.58317 -1.93015,-0.62628c-0.83945,-0.05099 -1.70742,-0.10349 -2.56281,-0.9587c-0.09829,-0.09829 -0.25745,-0.09829 -0.35574,0c-0.59223,0.59189 -0.86361,1.5251 -0.74486,2.55995c0.12579,1.09624 0.67894,2.18375 1.55731,3.06212c0.71718,0.71752 1.50967,1.10848 2.29126,1.13079c0.02432,0.00067 0.0483,0.00101 0.07262,0.00101c0.26182,0 0.51826,-0.04109 0.76599,-0.12059c0.00302,0.00285 0.0052,0.00604 0.00822,0.00906c0.00168,0.00168 0.00335,0.00319 0.0047,0.0047l0.07162,0.06776l-4.1446,4.14494c-0.61169,0.61152 -0.61169,1.60695 0,2.21864l0.11942,0.11942c0.30593,0.30576 0.70779,0.45855 1.10932,0.45855c0.40186,0 0.80339,-0.1528 1.10898,-0.45855l4.20766,-4.2075l4.83444,4.58169c0.20479,0.20462 0.47667,0.31733 0.76616,0.31733c0.00067,0 0.00134,0 0.00168,0c0.28999,-0.00034 0.56254,-0.11355 0.76817,-0.31867c0.42283,-0.4235 0.42316,-1.112 0.0057,-1.53081zm-0.5565,-11.20758l-0.82318,2.24866l-1.42531,-1.42564l2.24849,-0.82302zm-2.7052,1.07795l1.62708,1.62725l-3.2981,3.29794l-1.58314,-1.67035l3.25416,-3.25483zm-6.42395,4.33949c-0.65093,-0.01845 -1.32501,-0.35876 -1.94995,-0.98353c-0.79836,-0.79836 -1.30019,-1.77988 -1.41323,-2.76391c-0.08923,-0.77723 0.07061,-1.47764 0.44078,-1.96336c0.93204,0.81513 1.90248,0.874 2.69246,0.9218c0.64255,0.03891 1.19737,0.07262 1.60477,0.47986c0.50636,0.50652 0.7992,1.19368 0.82436,1.93502c0.02298,0.67089 -0.18399,1.2918 -0.55349,1.66113c-0.48338,0.48338 -1.0533,0.72859 -1.6457,0.71299zm-1.2539,6.59218c-0.41545,0.41545 -1.09121,0.41545 -1.50682,0l-0.11942,-0.11942c-0.41562,-0.41562 -0.41562,-1.09154 0,-1.50699l0.9109,-0.91107l1.62641,1.62641l-0.91107,0.91107zm1.26681,-1.26681l-1.62641,-1.62641l2.88752,-2.88768l1.67035,1.58297l-2.93146,2.93113zm9.31114,1.63949c-0.11036,0.11036 -0.25678,0.17125 -0.41277,0.17141c-0.00034,0 -0.00067,0 -0.00067,0c-0.15531,0 -0.30106,-0.06021 -0.41545,-0.1746l-7.17217,-6.79714c0.23884,-0.13502 0.4661,-0.30928 0.67844,-0.52145c0.19674,-0.19657 0.3544,-0.44782 0.47197,-0.73077l6.85114,7.22869c0.22676,0.2271 0.22659,0.59676 -0.0005,0.82385z"></path>
  </g>
</svg>