<svg xmlns:xlink="http://www.w3.org/1999/xlink" width="48" height="48" viewBox="0 0 48 48" fill="none" xmlns="http://www.w3.org/2000/svg">
<circle cx="24" cy="24" r="24" fill="#FFFFFF"></circle>
<path d="M24.8637 15.2652C25.4945 15.2652 26.1257 15.2601 26.7565 15.2669C27.2063 15.2715 27.6511 15.322 28.0808 15.4667C29.0419 15.7903 29.5767 16.5337 29.6179 17.5511C29.6508 18.3623 29.4522 19.1352 29.2813 19.9145C28.6206 22.9236 27.9612 25.9333 27.2981 28.942C27.134 29.6872 26.8722 30.3932 26.4194 31.0176C25.747 31.9445 24.8191 32.4376 23.7074 32.6194C23.3122 32.6842 22.9146 32.7052 22.5144 32.7039C21.3576 32.6997 20.2008 32.7027 19.0444 32.7023C18.6754 32.7023 18.6771 32.7023 18.7554 32.3476C19.2001 30.3305 19.6437 28.313 20.0889 26.2959C20.8796 22.7128 21.6732 19.1306 22.4567 15.5458C22.5068 15.3174 22.6036 15.2563 22.8241 15.2606C23.5037 15.2736 24.1837 15.2652 24.8637 15.2652ZM22.9091 29.9018C23.0143 29.9018 23.1195 29.9043 23.2247 29.9013C23.7154 29.8879 24.0419 29.6527 24.209 29.1898C24.2422 29.0977 24.2704 29.003 24.2914 28.9075C24.9639 25.8567 25.6359 22.8058 26.3041 19.7541C26.3757 19.4264 26.4771 19.1032 26.4855 18.7637C26.4969 18.3186 26.3071 18.1153 25.8644 18.101C25.675 18.0951 25.4857 18.0972 25.2963 18.0972C24.9386 18.0968 24.9378 18.0972 24.862 18.4431C24.0663 22.0834 23.2718 25.7241 22.4748 29.3645C22.3574 29.903 22.3532 29.9022 22.9091 29.9018Z" fill="#1F2023"></path>
<path d="M17.6138 15.0078C18.3115 15.0019 18.9229 15.065 19.5036 15.3023C20.3953 15.6663 20.8308 16.3508 20.9091 17.2954C20.9768 18.1163 20.7475 18.8922 20.5741 19.6764C19.8748 22.8367 19.1703 25.9952 18.4701 29.1551C18.3329 29.7744 18.1385 30.3719 17.817 30.9222C17.3234 31.7675 16.6203 32.3645 15.6911 32.6759C14.5533 33.0571 13.3948 33.1118 12.2363 32.7882C11.1431 32.4827 10.5582 31.6779 10.5296 30.5414C10.5098 29.7508 10.7286 29.0023 10.8944 28.2446C11.5845 25.0902 12.2797 21.9371 12.9757 18.784C13.1369 18.0532 13.3826 17.3547 13.8236 16.7396C14.5726 15.6949 15.6259 15.1988 16.8723 15.0507C17.1442 15.0183 17.4164 15.0019 17.6138 15.0078ZM14.3559 30.1577C14.9236 30.156 15.2762 29.851 15.4109 29.24C16.0425 26.3739 16.6741 23.5082 17.3032 20.6416C17.4564 19.944 17.6323 19.2511 17.7472 18.5455C17.7994 18.2232 17.6761 17.9547 17.4013 17.8857C16.8046 17.7368 16.303 17.8895 16.0606 18.5017C16.0118 18.625 15.9777 18.755 15.9495 18.8846C15.3048 21.834 14.6614 24.7835 14.0184 27.7329C13.9065 28.2462 13.7895 28.7587 13.6869 29.2737C13.5669 29.8758 13.7874 30.1598 14.3559 30.1577Z" fill="#1F2023"></path>
<path d="M41.492 15.2656C42.1316 15.2896 42.9177 15.2227 43.7012 15.3043C44.1157 15.3476 44.5176 15.4436 44.8871 15.6413C45.5873 16.0162 45.9033 16.633 45.9866 17.3979C46.0624 18.093 45.9235 18.7641 45.7766 19.4356C45.6062 20.2157 45.4522 20.9995 45.2708 21.7771C44.9548 23.1306 44.1852 24.1131 42.8676 24.6226C42.7115 24.6832 42.6892 24.772 42.7086 24.9117C42.8693 26.0489 43.0296 27.1858 43.1874 28.3235C43.381 29.7179 43.5704 31.1122 43.7677 32.5062C43.7892 32.6572 43.753 32.7098 43.6007 32.7094C42.6257 32.706 41.6511 32.7052 40.6761 32.7102C40.5276 32.7111 40.4771 32.6446 40.4695 32.5137C40.4522 32.2201 40.4316 31.9264 40.4169 31.6327C40.3559 30.4222 40.2974 29.2117 40.2359 28.0012C40.1947 27.1896 40.1535 26.378 40.103 25.5672C40.0966 25.4679 40.1375 25.2937 40.0032 25.2861C39.8862 25.2794 39.9102 25.4532 39.8892 25.547C39.3804 27.8451 38.8742 30.1437 38.376 32.4439C38.3322 32.645 38.2548 32.7161 38.044 32.7132C37.2095 32.701 36.3751 32.7085 35.5402 32.7077C35.2844 32.7077 35.2759 32.6968 35.3315 32.4439C35.8364 30.1521 36.3422 27.8607 36.8472 25.5689C37.5857 22.2168 38.3251 18.8651 39.0585 15.5117C39.0993 15.3257 39.1772 15.2593 39.3678 15.2622C40.0285 15.2715 40.6879 15.2656 41.492 15.2656ZM42.0025 18.0585C41.9675 18.0585 41.9326 18.0581 41.8973 18.0585C41.4996 18.0648 41.5577 18.0089 41.4714 18.4027C41.1996 19.646 40.9235 20.8885 40.6551 22.1322C40.5423 22.6548 40.4737 22.5887 41.0388 22.5744C41.7613 22.5559 42.1304 22.2407 42.2844 21.5385C42.4717 20.6848 42.6606 19.8311 42.8264 18.9732C42.9392 18.3901 42.7818 18.0219 42.0858 18.0585C42.0584 18.0598 42.0307 18.0585 42.0025 18.0585Z" fill="#1F2023"></path>
<path d="M10.1577 21.2628C9.73691 21.2628 9.3161 21.2637 8.89572 21.2628C8.6403 21.2624 8.63567 21.254 8.69205 20.9982C8.86332 20.2181 9.03795 19.4389 9.20291 18.6575C9.28118 18.2873 9.18103 18.0281 8.93822 17.9065C8.56076 17.7172 7.95691 17.8644 7.69686 18.2014C7.48646 18.4745 7.43806 18.8035 7.36779 19.1233C6.72691 22.0517 6.08981 24.981 5.45188 27.9102C5.34752 28.389 5.24021 28.8678 5.14595 29.3488C5.04201 29.8806 5.27514 30.1566 5.81419 30.1583C6.36249 30.1595 6.73785 29.8633 6.86241 29.3155C7.03914 28.5371 7.21462 27.7579 7.37621 26.9762C7.41829 26.7725 7.50203 26.7027 7.71201 26.7056C8.5393 26.717 9.3666 26.7098 10.1943 26.7107C10.4683 26.7111 10.4821 26.7245 10.4211 26.9804C10.1939 27.9338 10.0433 28.9065 9.75332 29.844C9.20207 31.6267 8.0032 32.6638 6.14283 32.9209C5.37866 33.0265 4.62037 33.0177 3.86798 32.8376C2.44945 32.4985 1.89694 31.4664 2.0156 30.1246C2.1208 28.9352 2.47091 27.7895 2.72129 26.6265C3.2818 24.0242 3.85956 21.4261 4.43353 18.8275C4.64183 17.8842 4.98268 17.0023 5.66564 16.2879C6.38311 15.5377 7.28826 15.1792 8.2965 15.0568C9.05184 14.9651 9.80592 14.9739 10.5512 15.162C11.9709 15.5204 12.4923 16.5727 12.3804 17.8779C12.287 18.971 11.9327 20.0145 11.7155 21.0844C11.6886 21.2165 11.6204 21.2674 11.4828 21.2653C11.0414 21.2582 10.5996 21.2624 10.1577 21.2628Z" fill="#1F2023"></path>
<path d="M31.0246 32.7073C29.9309 32.7073 28.8373 32.7077 27.7436 32.7069C27.497 32.7069 27.4878 32.6951 27.5395 32.4582C28.185 29.5096 28.8314 26.5614 29.4773 23.6132C30.0631 20.9385 30.6484 18.2634 31.2342 15.5891C31.3053 15.2652 31.3074 15.2656 31.6432 15.2656C33.7817 15.2656 35.9198 15.2656 38.0583 15.2656C38.3912 15.2656 38.3907 15.2673 38.3175 15.5971C38.1522 16.3423 37.9805 17.0862 37.8281 17.8343C37.7856 18.0421 37.6956 18.1031 37.4907 18.1014C36.3267 18.093 35.1628 18.1014 33.9993 18.0934C33.7981 18.0922 33.7055 18.1435 33.6609 18.356C33.3845 19.6788 33.092 20.9987 32.8059 22.3194C32.7503 22.5761 32.7583 22.5858 33.0137 22.5862C33.9955 22.587 34.9768 22.5862 35.9585 22.587C36.2013 22.5875 36.2169 22.6064 36.1655 22.8382C35.9918 23.6246 35.8112 24.4097 35.6463 25.1978C35.6097 25.3724 35.5335 25.4254 35.3635 25.4246C34.3679 25.4191 33.3723 25.4279 32.3766 25.4174C32.1717 25.4153 32.0985 25.4877 32.0577 25.6791C31.7749 27.0078 31.482 28.3345 31.1921 29.6619C31.1399 29.9009 31.1403 29.9026 31.3953 29.9026C32.5593 29.903 33.7232 29.9026 34.8867 29.903C35.1796 29.903 35.1842 29.9051 35.1253 30.1773C34.9578 30.9507 34.784 31.7227 34.6178 32.4965C34.5846 32.6526 34.5131 32.7123 34.3473 32.7111C33.2401 32.7039 32.1321 32.7073 31.0246 32.7073Z" fill="#1F2023"></path>
</svg>