<svg xmlns:xlink="http://www.w3.org/1999/xlink" width="19" height="19" viewBox="0 0 19 19" fill="none" xmlns="http://www.w3.org/2000/svg">
<path d="M16.0313 5.93749H2.96875C2.64083 5.93749 2.375 6.20332 2.375 6.53124V8.90624C2.375 9.23416 2.64083 9.49999 2.96875 9.49999H16.0313C16.3592 9.49999 16.625 9.23416 16.625 8.90624V6.53124C16.625 6.20332 16.3592 5.93749 16.0313 5.93749Z" stroke="#CACACA" stroke-width="0.8px" stroke-linecap="round" stroke-linejoin="round" fill="none"></path>
<path d="M15.4375 9.5V14.8438C15.4375 15.0012 15.3749 15.1522 15.2636 15.2636C15.1522 15.3749 15.0012 15.4375 14.8437 15.4375H4.15625C3.99878 15.4375 3.84776 15.3749 3.73641 15.2636C3.62506 15.1522 3.5625 15.0012 3.5625 14.8438V9.5" stroke="#CACACA" stroke-width="0.8px" stroke-linecap="round" stroke-linejoin="round" fill="none"></path>
<path d="M9.5 5.93749V15.4375" stroke="#CACACA" stroke-width="0.8px" stroke-linecap="round" stroke-linejoin="round" fill="none"></path>
<path d="M12.8588 5.09779C12.0191 5.93748 9.5 5.93748 9.5 5.93748C9.5 5.93748 9.5 3.41841 10.3397 2.57872C10.6738 2.24498 11.1268 2.05759 11.599 2.05772C12.0713 2.05785 12.5241 2.24551 12.858 2.57944C13.192 2.91336 13.3796 3.36622 13.3798 3.83846C13.3799 4.3107 13.1925 4.76367 12.8588 5.09779V5.09779Z" stroke="#CACACA" stroke-width="0.8px" stroke-linecap="round" stroke-linejoin="round" fill="none"></path>
<path d="M6.14112 5.09779C6.98081 5.93748 9.49987 5.93748 9.49987 5.93748C9.49987 5.93748 9.49987 3.41841 8.66018 2.57872C8.32607 2.24498 7.8731 2.05759 7.40086 2.05772C6.92862 2.05785 6.47576 2.24551 6.14183 2.57944C5.80791 2.91336 5.62025 3.36622 5.62012 3.83846C5.61998 4.3107 5.80738 4.76367 6.14112 5.09779V5.09779Z" stroke="#CACACA" stroke-width="0.8px" stroke-linecap="round" stroke-linejoin="round" fill="none"></path>
</svg>