<svg xmlns:xlink="http://www.w3.org/1999/xlink" width="16" height="16" viewBox="0 0 16 16" fill="none" xmlns="http://www.w3.org/2000/svg">
<path d="M8.5 14.8749C12.0208 14.8749 14.875 12.0208 14.875 8.49994C14.875 4.97912 12.0208 2.12494 8.5 2.12494C4.97918 2.12494 2.125 4.97912 2.125 8.49994C2.125 12.0208 4.97918 14.8749 8.5 14.8749Z" stroke="#BEBEBE" stroke-linecap="round" stroke-linejoin="round" fill="none"></path>
<path d="M6.10938 7.83585C6.47613 7.83585 6.77344 7.53853 6.77344 7.17177C6.77344 6.80501 6.47613 6.50769 6.10938 6.50769C5.74262 6.50769 5.44531 6.80501 5.44531 7.17177C5.44531 7.53853 5.74262 7.83585 6.10938 7.83585Z" fill="#BEBEBE"></path>
<path d="M10.8906 7.83585C11.2574 7.83585 11.5547 7.53853 11.5547 7.17177C11.5547 6.80501 11.2574 6.50769 10.8906 6.50769C10.5239 6.50769 10.2266 6.80501 10.2266 7.17177C10.2266 7.53853 10.5239 7.83585 10.8906 7.83585Z" fill="#BEBEBE"></path>
<path d="M11.2611 10.0937C10.9812 10.5783 10.5787 10.9807 10.094 11.2605C9.60935 11.5403 9.05957 11.6876 8.49994 11.6876C7.9403 11.6876 7.39052 11.5403 6.90584 11.2606C6.42116 10.9808 6.01866 10.5784 5.73877 10.0937" stroke="#BEBEBE" stroke-linecap="round" stroke-linejoin="round" fill="none"></path>
</svg>