<svg xmlns:xlink="http://www.w3.org/1999/xlink" width="17" height="16" viewBox="0 0 17 16" fill="none" xmlns="http://www.w3.org/2000/svg">
<path d="M8.49967 14.6667C12.1816 14.6667 15.1663 11.6819 15.1663 8.00001C15.1663 4.31811 12.1816 1.33334 8.49967 1.33334C4.81778 1.33334 1.83301 4.31811 1.83301 8.00001C1.83301 11.6819 4.81778 14.6667 8.49967 14.6667Z" stroke="#CACACA" stroke-width="1.5px" stroke-linecap="round" stroke-linejoin="round" fill="none"></path>
<path d="M6.55957 6.00001C6.71631 5.55446 7.02567 5.17875 7.43287 4.93944C7.84007 4.70012 8.31883 4.61264 8.78435 4.69249C9.24987 4.77234 9.67211 5.01436 9.97629 5.3757C10.2805 5.73703 10.4469 6.19436 10.4462 6.66668C10.4462 8.00001 8.44624 8.66668 8.44624 8.66668" stroke="#CACACA" stroke-width="1.5px" stroke-linecap="round" stroke-linejoin="round" fill="none"></path>
<path d="M8.5 11.3333H8.50667" stroke="#CACACA" stroke-width="1.5px" stroke-linecap="round" stroke-linejoin="round" fill="none"></path>
</svg>