<svg xmlns:xlink="http://www.w3.org/1999/xlink" width="20" height="20" viewBox="0 0 20 20" fill="var(--icon-color)" xmlns="http://www.w3.org/2000/svg">
<path d="M15.9818 7.76913L7.12238 2.30804C6.48142 1.91344 5.70649 1.89703 5.04939 2.26415C4.39229 2.63121 4 3.29979 4 4.05246V14.9249C4 16.063 4.91699 16.9938 6.04405 17C6.04712 17 6.0502 17 6.05322 17C6.40542 17 6.77245 16.8896 7.11526 16.6804C7.39103 16.5121 7.47819 16.1522 7.30994 15.8765C7.14168 15.6007 6.78168 15.5135 6.506 15.6818C6.34566 15.7796 6.18907 15.8302 6.05034 15.8301C5.6251 15.8278 5.1698 15.4636 5.1698 14.9249V4.05249C5.1698 3.72961 5.33808 3.44288 5.61991 3.28541C5.90178 3.12794 6.23415 3.13497 6.50875 3.30404L15.3682 8.76514C15.6344 8.92908 15.7868 9.20245 15.7862 9.51517C15.7855 9.82785 15.632 10.1006 15.3643 10.264L8.95891 14.1859C8.6834 14.3546 8.5968 14.7147 8.76549 14.9902C8.93416 15.2657 9.29425 15.3523 9.56975 15.1836L15.9744 11.2621C16.5876 10.888 16.9546 10.2359 16.956 9.51751C16.9575 8.79921 16.5932 8.14553 15.9818 7.76913Z" fill="#BEBEBE"></path>
</svg>