<svg xmlns:xlink="http://www.w3.org/1999/xlink" width="28" height="23" viewBox="0 0 17 15" fill="none" xmlns="http://www.w3.org/2000/svg"> <path d="M8.5 13.5V12.5C8.5 11.9696 8.28929 11.4609 7.91421 11.0858C7.53914 10.7107 7.03043 10.5 6.5 10.5H2.5C1.96957 10.5 1.46086 10.7107 1.08579 11.0858C0.710714 11.4609 0.5 11.9696 0.5 12.5V13.5" stroke="#BEBEBE" stroke-linecap="round" stroke-linejoin="round" fill="none"></path> <path d="M4.5 8.5C5.60457 8.5 6.5 7.60457 6.5 6.5C6.5 5.39543 5.60457 4.5 4.5 4.5C3.39543 4.5 2.5 5.39543 2.5 6.5C2.5 7.60457 3.39543 8.5 4.5 8.5Z" stroke="#BEBEBE" stroke-linecap="round" stroke-linejoin="round" fill="none"></path> <path d="M11.5 13.4999V12.4999C11.4997 12.0568 11.3522 11.6263 11.0807 11.2761C10.8092 10.9259 10.4291 10.6757 10 10.5649" stroke="#BEBEBE" stroke-linecap="round" stroke-linejoin="round" fill="none"></path> <path d="M8 4.56494C8.43021 4.67509 8.81152 4.92529 9.08382 5.2761C9.35612 5.6269 9.50392 6.05836 9.50392 6.50244C9.50392 6.94653 9.35612 7.37798 9.08382 7.72879C8.81152 8.07959 8.43021 8.32979 8 8.43994" stroke="#BEBEBE" stroke-linecap="round" stroke-linejoin="round" fill="none"></path> <path d="M11.74 4.692L11.716 3.702H11.992C12.196 3.702 12.382 3.684 12.55 3.648C12.718 3.612 12.852 3.542 12.952 3.438C13.052 3.334 13.102 3.182 13.102 2.982C13.102 2.79 13.044 2.64 12.928 2.532C12.812 2.42 12.658 2.364 12.466 2.364C12.266 2.364 12.11 2.42 11.998 2.532C11.886 2.64 11.83 2.788 11.83 2.976H11.104C11.1 2.736 11.152 2.522 11.26 2.334C11.368 2.146 11.524 1.998 11.728 1.89C11.936 1.782 12.184 1.728 12.472 1.728C12.74 1.728 12.976 1.778 13.18 1.878C13.388 1.978 13.55 2.122 13.666 2.31C13.786 2.494 13.846 2.72 13.846 2.988C13.846 3.264 13.784 3.492 13.66 3.672C13.54 3.852 13.374 3.986 13.162 4.074C12.954 4.162 12.712 4.208 12.436 4.212L12.418 4.692H11.74ZM12.082 6.042C11.942 6.042 11.826 5.998 11.734 5.91C11.646 5.822 11.602 5.716 11.602 5.592C11.602 5.464 11.646 5.356 11.734 5.268C11.826 5.18 11.942 5.136 12.082 5.136C12.222 5.136 12.336 5.18 12.424 5.268C12.512 5.356 12.556 5.464 12.556 5.592C12.556 5.716 12.512 5.822 12.424 5.91C12.336 5.998 12.222 6.042 12.082 6.042Z" fill="#BEBEBE"></path> </svg>