<svg xmlns:xlink="http://www.w3.org/1999/xlink" width="19" height="19" viewBox="0 0 16 19" fill="none" xmlns="http://www.w3.org/2000/svg">
<path d="M9.28082 13.4369V9.87437C9.28082 9.7169 9.21826 9.56588 9.10691 9.45453C8.99556 9.34318 8.84454 9.28062 8.68707 9.28062H6.31207C6.15459 9.28062 6.00357 9.34318 5.89222 9.45453C5.78087 9.56588 5.71832 9.7169 5.71832 9.87437V13.4369C5.71832 13.5944 5.65577 13.7454 5.54444 13.8568C5.4331 13.9681 5.2821 14.0307 5.12464 14.0307L1.56257 14.0312C1.4846 14.0312 1.40738 14.0158 1.33533 13.986C1.26329 13.9562 1.19782 13.9124 1.14268 13.8573C1.08754 13.8022 1.0438 13.7367 1.01395 13.6647C0.98411 13.5926 0.96875 13.5154 0.96875 13.4374V6.57512C0.96875 6.4924 0.986035 6.41059 1.0195 6.33494C1.05296 6.25929 1.10186 6.19146 1.16306 6.13581L7.10015 0.737529C7.20945 0.638155 7.35186 0.583089 7.49957 0.583084C7.64729 0.583079 7.7897 0.638136 7.899 0.737503L13.8369 6.13581C13.8981 6.19146 13.947 6.25929 13.9805 6.33494C14.014 6.4106 14.0313 6.49242 14.0312 6.57514V13.4374C14.0313 13.5154 14.0159 13.5926 13.986 13.6647C13.9562 13.7367 13.9125 13.8022 13.8573 13.8573C13.8022 13.9124 13.7367 13.9562 13.6647 13.986C13.5926 14.0158 13.5154 14.0312 13.4374 14.0312L9.87449 14.0307C9.71703 14.0307 9.56603 13.9681 9.45469 13.8568C9.34336 13.7454 9.28081 13.5944 9.28082 13.4369V13.4369Z" stroke="#CACACA" stroke-linecap="round" stroke-linejoin="round" fill="none"></path>
</svg>